<svg xmlns="http://www.w3.org/2000/svg" width="40" height="30.899" viewBox="0 0 40 30.899"><defs><style>.a{fill:#040037;}.b{fill:#fff;}</style></defs><g transform="translate(-163 -202)"><path class="a" d="M11.779,41.455A3.8,3.8,0,0,1,8,37.676V22.559a3.8,3.8,0,0,1,3.779-3.779H16.3l1.228-3.059A1.134,1.134,0,0,1,18.582,15H29.164a1.134,1.134,0,0,1,1.051.72l1.228,3.059h4.523a3.8,3.8,0,0,1,3.779,3.779V37.676a3.8,3.8,0,0,1-3.779,3.779Zm0-2.268H35.967a1.484,1.484,0,0,0,1.512-1.512V22.559a1.484,1.484,0,0,0-1.512-1.512H30.676a1.134,1.134,0,0,1-1.051-.709L28.4,17.268H19.35l-1.228,3.071a1.134,1.134,0,0,1-1.051.709H11.779a1.484,1.484,0,0,0-1.512,1.512V37.676A1.484,1.484,0,0,0,11.779,39.187ZM23.873,37.3a7.181,7.181,0,1,1,7.181-7.181A7.2,7.2,0,0,1,23.873,37.3Zm0-2.268a4.913,4.913,0,1,0-4.913-4.913A4.9,4.9,0,0,0,23.873,35.03Z" transform="translate(155 191.444)"/><g transform="translate(186.492 202)"><circle class="a" cx="8.254" cy="8.254" r="8.254" transform="translate(0 0)"/><path class="b" d="M13.815,17.783v-3.3h-3.33V12.2h3.33v-3.3h2.22v3.3h3.339v2.281H16.035v3.3Z" transform="translate(-6.675 -5.085)"/></g></g></svg>