<svg xmlns="http://www.w3.org/2000/svg" width="60" height="46.349" viewBox="0 0 60 46.349"><defs><style>.a{fill:#ccccd7;}.b{fill:#040037;}.c{fill:#fff;}</style></defs><g transform="translate(-163 -202)"><path class="a" d="M13.669,54.683A5.694,5.694,0,0,1,8,49.014V26.338a5.694,5.694,0,0,1,5.669-5.669h6.785L22.3,16.08A1.7,1.7,0,0,1,23.873,15H39.746a1.7,1.7,0,0,1,1.577,1.08l1.842,4.588H49.95a5.694,5.694,0,0,1,5.669,5.669V49.014a5.694,5.694,0,0,1-5.669,5.669Zm0-3.4H49.95a2.226,2.226,0,0,0,2.268-2.268V26.338A2.226,2.226,0,0,0,49.95,24.07H42.014a1.7,1.7,0,0,1-1.577-1.063L38.595,18.4H25.024l-1.842,4.606a1.7,1.7,0,0,1-1.577,1.063H13.669A2.226,2.226,0,0,0,11.4,26.338V49.014A2.226,2.226,0,0,0,13.669,51.281ZM31.81,48.447A10.771,10.771,0,1,1,42.58,37.676,10.8,10.8,0,0,1,31.81,48.447Zm0-3.4a7.37,7.37,0,1,0-7.37-7.37A7.344,7.344,0,0,0,31.81,45.045Z" transform="translate(155 193.667)"/><g transform="translate(198.238 202)"><circle class="b" cx="12.381" cy="12.381" r="12.381" transform="translate(0 0)"/><path class="c" d="M15.48,22.228V17.272h-5V13.851h5V8.895h3.33v4.956h5.008v3.421H18.811v4.956Z" transform="translate(-4.77 -3.18)"/></g></g></svg>