<svg xmlns="http://www.w3.org/2000/svg" width="20" height="20.219" viewBox="0 0 20 20.219"><defs><style>.a{fill:#040037;}.b{fill:#fff;}</style></defs><g transform="translate(-31.787 -5.9)"><ellipse class="a" cx="10" cy="10.109" rx="10" ry="10.109" transform="translate(31.787 5.9)"/><g transform="translate(-8.1 360.367)"><path class="b" d="M330,209.123l2.558,2.558,1.1-1.1-2.558-2.558,2.558-2.558-1.1-1.1L330,206.926l-2.558-2.558-1.1,1.1,2.558,2.558-2.558,2.558,1.1,1.1Z" transform="translate(-280.111 -552.492)"/><path class="b" d="M324.248,208.832l-1.442-1.442,2.558-2.558-2.558-2.558,1.442-1.442,2.558,2.558,2.558-2.558,1.442,1.442-2.558,2.558,2.558,2.558-1.442,1.442-2.558-2.558Zm2.558-3.245,2.558,2.558.756-.756-2.558-2.558,2.558-2.558-.756-.755-2.558,2.558-2.558-2.558-.755.755,2.558,2.558-2.558,2.558.755.756Z" transform="translate(-276.919 -549.299)"/></g></g></svg>